<?xml version="1.0" encoding="UTF-8"?>
<svg xmlns="http://www.w3.org/2000/svg" xmlns:xlink="http://www.w3.org/1999/xlink" width="68pt" height="79pt" viewBox="0 0 68 79" version="1.1">
<g id="surface1">
<path style=" stroke:none;fill-rule:nonzero;fill:rgb(0%,0%,0%);fill-opacity:1;" d="M 9.5625 4.480469 C 9.492188 4.644531 9.46875 10.039062 9.492188 16.457031 C 9.5625 26.660156 9.609375 28.132812 9.917969 28.132812 C 10.222656 28.132812 10.292969 26.660156 10.390625 16.691406 L 10.507812 5.253906 L 57.492188 5.253906 L 57.5625 28.109375 C 57.585938 44.800781 57.539062 51.03125 57.351562 51.265625 C 57.140625 51.546875 54.992188 51.59375 45.664062 51.59375 C 34.378906 51.59375 34.234375 51.59375 34.234375 52.058594 C 34.234375 52.527344 34.355469 52.527344 46.347656 52.480469 L 58.4375 52.410156 L 58.4375 4.320312 L 34.046875 4.25 C 14.664062 4.203125 9.632812 4.25 9.5625 4.480469 Z M 9.5625 4.480469 "/>
<path style=" stroke:none;fill-rule:nonzero;fill:rgb(0%,0%,0%);fill-opacity:1;" d="M 21.015625 15.875 C 21.015625 16.667969 21.109375 16.855469 21.628906 17.042969 C 21.957031 17.183594 22.476562 17.277344 22.785156 17.277344 C 23.1875 17.277344 23.398438 17.4375 23.492188 17.789062 C 23.5625 18.09375 23.585938 22.785156 23.5625 28.246094 L 23.492188 38.167969 L 22.902344 38.332031 C 22.570312 38.425781 22.027344 38.566406 21.675781 38.636719 C 21.0625 38.753906 21.015625 38.847656 21.015625 39.804688 L 21.015625 40.855469 L 29.277344 40.855469 L 29.417969 40.269531 C 29.492188 39.945312 29.515625 39.546875 29.441406 39.382812 C 29.324219 39.03125 28.476562 38.613281 27.578125 38.425781 L 26.917969 38.285156 L 26.917969 28.949219 L 41.082031 28.949219 L 41.082031 33.59375 C 41.082031 38.660156 41.128906 38.519531 39.691406 38.519531 C 38.910156 38.519531 38.484375 38.894531 38.484375 39.59375 C 38.484375 40.855469 38.460938 40.855469 42.878906 40.855469 L 46.984375 40.855469 L 46.984375 39.804688 C 46.984375 38.683594 47.105469 38.777344 45.144531 38.378906 L 44.625 38.285156 L 44.671875 27.851562 L 44.742188 17.4375 L 45.804688 17.183594 C 46.609375 16.972656 46.914062 16.785156 47.082031 16.316406 C 47.554688 14.988281 47.386719 14.941406 42.878906 14.941406 C 40.210938 14.941406 38.699219 15.035156 38.605469 15.199219 C 38.507812 15.335938 38.507812 15.78125 38.582031 16.226562 C 38.722656 16.925781 38.839844 17.019531 39.855469 17.207031 L 40.964844 17.390625 L 41.035156 22.015625 L 41.082031 26.613281 L 34.070312 26.566406 L 27.035156 26.496094 L 27.035156 17.414062 L 28.074219 17.230469 C 29.277344 17.019531 29.539062 16.738281 29.464844 15.757812 L 29.394531 15.058594 L 25.214844 14.988281 L 21.015625 14.941406 Z M 21.015625 15.875 "/>
<path style=" stroke:none;fill-rule:nonzero;fill:rgb(0%,0%,0%);fill-opacity:1;" d="M 55.558594 60.488281 C 54.328125 61.070312 53.714844 62.214844 53.902344 63.546875 C 54.070312 64.804688 54.753906 65.4375 56.476562 65.972656 C 59.027344 66.765625 59.902344 68.121094 58.695312 69.5 C 58.179688 70.082031 57.988281 70.152344 56.691406 70.128906 C 55.085938 70.105469 54.660156 69.871094 54.445312 68.867188 C 54.375 68.449219 54.164062 68.167969 53.953125 68.167969 C 53.667969 68.167969 53.597656 68.449219 53.597656 69.429688 C 53.597656 70.640625 53.621094 70.710938 54.328125 70.945312 C 54.753906 71.085938 55.792969 71.203125 56.644531 71.203125 C 59.144531 71.203125 60.445312 70.082031 60.445312 67.910156 C 60.445312 67.117188 60.304688 66.8125 59.664062 66.207031 C 59.242188 65.808594 58.460938 65.34375 57.941406 65.179688 C 55.507812 64.363281 54.847656 63.753906 55.109375 62.660156 C 55.34375 61.722656 56.171875 61.164062 57.328125 61.164062 C 58.722656 61.164062 59.265625 61.492188 59.265625 62.332031 C 59.265625 62.890625 59.359375 63.03125 59.757812 63.03125 C 60.183594 63.03125 60.230469 62.914062 60.160156 61.839844 L 60.089844 60.628906 L 59.027344 60.324219 C 57.539062 59.878906 56.714844 59.925781 55.558594 60.488281 Z M 55.558594 60.488281 "/>
<path style=" stroke:none;fill-rule:nonzero;fill:rgb(0%,0%,0%);fill-opacity:1;" d="M 24.53125 60.859375 C 24.390625 61.234375 24.128906 61.910156 23.941406 62.402344 C 23.777344 62.867188 23.46875 63.617188 23.28125 64.035156 C 23.089844 64.433594 22.453125 65.996094 21.863281 67.46875 C 21.25 69.03125 20.589844 70.292969 20.304688 70.480469 C 19.503906 71.015625 19.761719 71.203125 21.367188 71.203125 C 22.878906 71.203125 23.28125 70.96875 22.5 70.527344 C 22.125 70.316406 22.125 70.246094 22.570312 69.171875 L 23.042969 68.050781 L 27.980469 68.050781 L 28.5 69.101562 C 29.019531 70.128906 29.019531 70.152344 28.570312 70.480469 C 27.765625 71.015625 28.050781 71.203125 29.632812 71.203125 C 31.144531 71.203125 31.566406 70.96875 30.742188 70.527344 C 30.503906 70.410156 29.539062 68.332031 28.332031 65.273438 L 26.328125 60.230469 L 25.546875 60.230469 C 24.933594 60.230469 24.722656 60.347656 24.53125 60.859375 Z M 26.5625 64.058594 C 27.035156 65.273438 27.390625 66.464844 27.339844 66.695312 C 27.269531 67.046875 26.988281 67.117188 25.546875 67.1875 C 24.203125 67.234375 23.800781 67.1875 23.707031 66.90625 C 23.5625 66.558594 25.265625 61.863281 25.546875 61.863281 C 25.617188 61.863281 26.089844 62.867188 26.5625 64.058594 Z M 26.5625 64.058594 "/>
<path style=" stroke:none;fill-rule:nonzero;fill:rgb(0%,0%,0%);fill-opacity:1;" d="M 33.125 60.394531 C 32.820312 60.441406 32.582031 60.628906 32.582031 60.765625 C 32.582031 60.929688 32.820312 61.164062 33.125 61.28125 C 33.644531 61.515625 33.644531 61.609375 33.714844 65.902344 L 33.765625 70.269531 L 33.171875 70.550781 C 32.84375 70.6875 32.582031 70.945312 32.582031 71.132812 C 32.582031 71.484375 35.0625 71.53125 38.085938 71.226562 C 40.234375 70.992188 41.4375 70.339844 42.429688 68.820312 C 43.019531 67.957031 43.089844 67.652344 43.089844 65.855469 C 43.089844 63.242188 42.617188 62.285156 40.609375 60.90625 C 39.855469 60.394531 39.546875 60.347656 36.714844 60.324219 C 35.039062 60.277344 33.410156 60.324219 33.125 60.394531 Z M 39.40625 61.722656 C 39.855469 61.886719 40.5625 62.402344 40.941406 62.890625 C 41.625 63.730469 41.671875 63.894531 41.671875 65.785156 C 41.671875 68.027344 41.390625 68.679688 40.042969 69.636719 C 39.429688 70.082031 39.003906 70.152344 37.1875 70.152344 L 35.0625 70.152344 L 34.992188 66.066406 C 34.96875 63.824219 34.992188 61.863281 35.039062 61.703125 C 35.203125 61.304688 38.296875 61.328125 39.40625 61.722656 Z M 39.40625 61.722656 "/>
<path style=" stroke:none;fill-rule:nonzero;fill:rgb(0%,0%,0%);fill-opacity:1;" d="M 7.554688 60.8125 C 7.554688 61 7.722656 61.164062 7.910156 61.164062 C 8.570312 61.164062 8.734375 62.074219 8.734375 65.832031 C 8.734375 69.59375 8.570312 70.503906 7.910156 70.503906 C 7.722656 70.503906 7.554688 70.664062 7.554688 70.851562 C 7.554688 71.132812 7.910156 71.203125 9.328125 71.203125 C 11.144531 71.203125 11.617188 70.921875 10.507812 70.503906 C 9.917969 70.269531 9.894531 70.222656 9.964844 68.238281 L 10.035156 66.183594 L 16.171875 66.183594 L 16.246094 68.238281 C 16.316406 70.152344 16.269531 70.316406 15.820312 70.433594 C 15.558594 70.503906 15.347656 70.710938 15.347656 70.875 C 15.347656 71.132812 15.773438 71.203125 17.117188 71.203125 C 18.488281 71.203125 18.890625 71.132812 18.890625 70.875 C 18.890625 70.6875 18.652344 70.503906 18.371094 70.457031 C 17.828125 70.386719 17.828125 70.386719 17.828125 65.832031 C 17.828125 61.28125 17.828125 61.28125 18.371094 61.210938 C 18.652344 61.164062 18.890625 60.976562 18.890625 60.789062 C 18.890625 60.535156 18.488281 60.464844 17.117188 60.464844 C 15.773438 60.464844 15.347656 60.535156 15.347656 60.789062 C 15.347656 60.953125 15.558594 61.164062 15.820312 61.234375 C 16.246094 61.351562 16.292969 61.5625 16.292969 63.242188 L 16.292969 65.132812 L 9.894531 65.132812 L 9.964844 63.195312 C 10.035156 61.421875 10.082031 61.28125 10.578125 61.210938 C 10.859375 61.164062 11.097656 60.976562 11.097656 60.789062 C 11.097656 60.535156 10.695312 60.464844 9.328125 60.464844 C 7.910156 60.464844 7.554688 60.535156 7.554688 60.8125 Z M 7.554688 60.8125 "/>
<path style=" stroke:none;fill-rule:nonzero;fill:rgb(0%,0%,0%);fill-opacity:1;" d="M 44.390625 60.789062 C 44.390625 60.953125 44.601562 61.164062 44.859375 61.234375 C 45.308594 61.351562 45.332031 61.5625 45.332031 65.832031 C 45.332031 70.105469 45.308594 70.316406 44.859375 70.433594 C 44.601562 70.503906 44.390625 70.710938 44.390625 70.875 C 44.390625 71.132812 45.121094 71.203125 48.285156 71.203125 L 52.179688 71.203125 L 52.179688 70.035156 C 52.179688 69.03125 52.109375 68.867188 51.730469 68.867188 C 51.402344 68.867188 51.234375 69.054688 51.1875 69.5 L 51.117188 70.152344 L 46.867188 70.152344 L 46.796875 68.308594 C 46.75 66.976562 46.820312 66.394531 47.035156 66.277344 C 47.199219 66.160156 48.167969 66.066406 49.183594 66.066406 C 50.8125 66.066406 51.023438 66.019531 50.953125 65.648438 C 50.882812 65.320312 50.550781 65.25 48.804688 65.179688 L 46.726562 65.109375 L 46.867188 61.515625 L 48.992188 61.515625 C 51.046875 61.515625 51.09375 61.539062 51.234375 62.097656 C 51.308594 62.425781 51.566406 62.707031 51.777344 62.75 C 52.109375 62.820312 52.179688 62.636719 52.179688 61.65625 L 52.179688 60.464844 L 48.285156 60.464844 C 45.121094 60.464844 44.390625 60.535156 44.390625 60.789062 Z M 44.390625 60.789062 "/>
</g>
</svg>
